<svg width="23" height="22" viewBox="0 0 23 22" fill="none" xmlns="http://www.w3.org/2000/svg">
<g id="icn bxs-star">
<path id="Vector" d="M21.0968 8.41256C21.0391 8.24274 20.933 8.09353 20.7915 7.98335C20.65 7.87316 20.4794 7.80681 20.3006 7.79251L15.0714 7.377L12.8086 2.36798C12.7366 2.20665 12.6193 2.06963 12.4711 1.97344C12.3229 1.87726 12.15 1.82602 11.9733 1.82593C11.7966 1.82583 11.6237 1.87687 11.4754 1.9729C11.327 2.06892 11.2097 2.20582 11.1374 2.36707L8.87461 7.377L3.64546 7.79251C3.46976 7.80642 3.3018 7.87066 3.16167 7.97754C3.02153 8.08442 2.91515 8.2294 2.85525 8.39516C2.79536 8.56091 2.78448 8.74041 2.82393 8.91218C2.86338 9.08395 2.95148 9.24072 3.07769 9.36373L6.942 13.1308L5.57532 19.0488C5.53382 19.2279 5.54712 19.4154 5.61349 19.5869C5.67986 19.7584 5.79625 19.9059 5.94753 20.0105C6.09882 20.115 6.27803 20.1716 6.4619 20.173C6.64577 20.1744 6.82582 20.1205 6.97868 20.0183L11.973 16.6888L16.9674 20.0183C17.1236 20.1221 17.3079 20.1755 17.4954 20.1713C17.6828 20.1672 17.8646 20.1058 18.0161 19.9953C18.1677 19.8848 18.2817 19.7306 18.343 19.5533C18.4043 19.3761 18.4098 19.1843 18.3588 19.0039L16.6812 13.1336L20.8418 9.38941C21.1142 9.14359 21.2142 8.76019 21.0968 8.41256Z" fill="#F3CD03"/>
</g>
</svg>
